<svg xmlns="http://www.w3.org/2000/svg" viewBox="0 0 1253.31 491.83"><title>Sage-Organics-Logo</title><g id="Layer_1" data-name="Layer 1"><path d="M1036.77,545.18l-8-11.07c-3.4-2.92-15.14-39.74-145.27-59.24C814.27,464.49,763.66,445.57,733,418.63c-25.33-22.29-37.48-50.8-35.14-82.46,1.83-24.7,11.91-46.35,20.05-60.16a146.8,146.8,0,0,1,12.75-18.47c5.72-7,9.67-10.51,15.34-10.51h1.54l1.54.41c26.87,7.34,46.26,13.14,57.65,17.25a59.24,59.24,0,0,1,11.1,4.83l31.75,4.65c2.26,0,4.52-.07,6.74-.07,40.43,0,75.77,7.84,105,23.31a168.19,168.19,0,0,1,62.92,57.76c25.39,39,33.44,83.71,35.72,114.34,2.41,32.43-.77,62.41-5.24,72.66a11.92,11.92,0,0,1-10.92,7.16S1039,549.32,1036.77,545.18Z" transform="translate(-39.94 -57.5)" style="fill:#fff"/><path d="M560.68,462.55c-1.68-3.7-9.93-35.8,5.81-72.48-17.27-.79-30.79-2.71-43.44-6.14-14.49-3.93-26.74-10.83-36.41-20.53a48.52,48.52,0,0,1-14.43-29.58,44.42,44.42,0,0,1,.56-13.38A57.49,57.49,0,0,1,441.4,305l-.43.13c-14.55,4.24-29.61,8.64-44.53,12.73a347.86,347.86,0,0,1-39.69,8.31c-5.77.87-11.36,1.45-16.64,1.71l-.56,0c-5,.26-10.24.53-15.54.53-2.16,0-4.31,0-6.46-.15-17.16-.84-31.76-4.31-44.65-10.63a86.1,86.1,0,0,1-29.19-22.92,347.2,347.2,0,0,1-34,18.86,375.42,375.42,0,0,1-64.39,24l-7.47,2.06c-6.09,1.68-12.18,3.36-18.29,4.95a86.91,86.91,0,0,1-21.77,2.91c-2.05,0-4.12-.08-6.13-.25-12.27-1-22.09-4.4-30-10.4-11.32-8.54-18.56-20.13-20.93-33.49-3-17,3-32.29,17-43.15a53.49,53.49,0,0,1,13.51-7.6c-12.3-7.31-20.85-18.75-25-33.66-3.28-11.77-2.12-23.82,3.55-36.83,4.27-9.81,10.94-18.81,21-28.31,13.28-12.58,28-22,40.56-29.63,12.91-7.77,25.72-16.55,38.1-25l6.43-4.4c10.36-7.11,21.07-14.45,32.78-20.63,15.11-8,27.41-12.62,39.89-15.11a75.31,75.31,0,0,1,14.69-1.53A56.71,56.71,0,0,1,270,64c15.86,8.39,25.48,22.1,27.84,39.65.91,6.8-.63,14-4.46,20.84a36.49,36.49,0,0,1-17.61,15.91,94.19,94.19,0,0,1,10,2,90.62,90.62,0,0,1,22-14.23,178.43,178.43,0,0,1,24.89-9.65c12.69-4,24.91-8.84,37.86-14l.55-.22a197.49,197.49,0,0,1,34.81-10.63,86.86,86.86,0,0,1,16.9-1.72,76.25,76.25,0,0,1,23.45,3.66,61.17,61.17,0,0,1,29.77,21.07c9.27,11.85,17,25.84,23.56,42.77q4.08,10.49,7.38,21.74a125.43,125.43,0,0,1,22.64-16.66c11.62-6.8,24.66-12.4,41.07-17.63,13.74-4.38,27.87-7.67,41.08-10.56,5.71-1.25,11.43-2.42,17.16-3.57a48.52,48.52,0,0,1,15-12.12,51,51,0,0,1,23.84-6.09,49.9,49.9,0,0,1,10.25,1.08c18,3.78,31.27,15.14,39.41,33.76,3.88,8.88,5.62,18,6.93,26.62.54,3.52,1,7.08,1.25,10.64,7.08-11.51,17.07-21.2,29.73-28.83,10.73-6.48,22.62-12.05,37.4-17.55a202,202,0,0,1,35.32-9.65c3.71-.65,7.27-1,10.72-1.37,1.51-.16,3-.31,4.52-.49a72.83,72.83,0,0,1,8.73-.5c3.11,0,6.42.17,10.14.53,19.69,1.89,35.21,8.43,47.32,20a36.15,36.15,0,0,1,49.26,25,35,35,0,0,1,.95,6.84,201.19,201.19,0,0,1,46.21,16.23,232.17,232.17,0,0,1,39,24.63A285,285,0,0,1,1094,270.55a338.64,338.64,0,0,1,38.89,61c4.22,8.58,8.5,17.95,11.17,28.25a42.59,42.59,0,0,1,1.18,8.23,18.9,18.9,0,0,1-11,18.5,20.37,20.37,0,0,1-8.81,2,19.64,19.64,0,0,1-11.45-3.71c-.84-.6-1.66-1.25-2.47-1.89a16.32,16.32,0,0,0-1.36-1,47.92,47.92,0,0,0-12-5.13q-.83-.25-1.69-.48c0,.67.26,7.5.26,7.5a38.93,38.93,0,0,1-.07,4.26,19.36,19.36,0,0,1-17.31,18.14c-2.55.3-5.17.49-8,.58-4.15.14-8.32.25-12.49.37l-8.94.26c-2,.06-4,.14-6,.23l-4.64.18-29.66,1.05-10.94.42-68.79,2.49-3,.1c-2.54.08-5.08.15-7.61.34a9.23,9.23,0,0,0-1.85.25c-14.06,5.13-28.12,9.67-41.75,13.49a394.72,394.72,0,0,1-46.26,10.29c-8.5,1.31-16.91,2.21-25,2.69-7.11.42-14,.47-19.29.47l-7.19,0a68.79,68.79,0,0,1-7.74-.53c-10.18,9-22.89,14.9-38.65,17.92A129.08,129.08,0,0,1,708.93,459l-2.48,0a211.41,211.41,0,0,1-36.73-3.53l-1.86-.33c-6.43-1.13-12.5-2.2-18.63-3-3.07-.41-6.35-.59-9.82-.79l-4.29-.26L633.4,451c-1.19-.09-2.38-.2-3.57-.2l-1.3,0c-8.08.31-15.71.61-22.16,2.95-2.59.94-21.75,17.76-29.19,17.76C577.17,471.54,565.75,473.75,560.68,462.55Z" transform="translate(-39.94 -57.5)" style="fill:#fff"/><path d="M767,326.93c2.59.11,54.63,135.18-95.83,106.18C591.59,417.77,580,449.81,580,449.81a.23.23,0,0,1-.26-.21c-2.52-16.4,14-174.52,130.48-125.65l19.45,3.83S727.2,325.27,767,326.93Z" transform="translate(-39.94 -57.5)" style="fill:#4c7436"/><g style="opacity:0.30000000000000004"><path d="M580.08,446.8s.36-.83,1.14-2.35,2-3.69,3.67-6.4,3.87-5.89,6.54-9.44,5.9-7.39,9.63-11.41c.93-1,1.92-2,2.91-3l1.5-1.55,1.59-1.52c1.07-1,2.15-2.07,3.27-3.11l3.48-3.08c1.16-1.06,2.41-2.05,3.66-3.08l1.89-1.54c.32-.26.63-.53,1-.77l1-.7c2.73-1.86,5.49-3.81,8.43-5.58A201.49,201.49,0,0,1,648.24,383c6.51-3.05,13.2-6,20.07-8.43l5.14-1.85c1.73-.58,3.47-1.09,5.2-1.64l5.19-1.6,5.22-1.38c1.73-.45,3.45-.93,5.18-1.35l5.17-1.13,5.11-1.12,5.07-.9c6.7-1.28,13.24-2,19.43-2.82,6.22-.54,12.08-1.19,17.52-1.36l7.8-.39,7-.08,6.19-.07c1.91,0,3.67.09,5.25.12l10,.27v.38l-10,0c-1.58,0-3.34,0-5.24,0l-6.17.21-7,.24-7.76.57c-5.42.29-11.24,1.08-17.41,1.76-6.14.93-12.62,1.82-19.24,3.25l-5,1-5,1.22-5.1,1.24c-1.7.46-3.39,1-5.09,1.46L684.61,372l-5.09,1.7c-1.7.58-3.41,1.13-5.1,1.73l-5,1.94c-6.73,2.55-13.24,5.6-19.57,8.75a197.53,197.53,0,0,0-17.88,10.46c-2.84,1.8-5.49,3.77-8.11,5.64s-5.24,3.66-7.67,5.55l-3.61,2.78c-1.17.94-2.29,1.9-3.4,2.82l-1.66,1.38-1.58,1.42c-1,.94-2.08,1.84-3.06,2.77-3.92,3.7-7.33,7.29-10.23,10.59s-5.23,6.34-7.09,8.9-3.19,4.66-4.07,6.1-1.29,2.26-1.29,2.26Z" transform="translate(-39.94 -57.5)" style="fill:#fff"/></g><path d="M709.65,271.09c-4.9,1.58-35.26,238.94,237.69,112.68,144.31-66.75,182.88-23.39,182.88-23.39s.46-.06.4-.46c-3.59-26.77-116.22-262.76-314-124.12l-35.26,16.46S784.86,247,709.65,271.09Z" transform="translate(-39.94 -57.5)" style="fill:#b8d54a"/><g style="opacity:0.30000000000000004"><path d="M1130.39,360.3a161.26,161.26,0,0,0-19.1-17.49c-3.37-2.7-6.86-5.24-10.35-7.77s-7.09-4.9-10.76-7.15a276.07,276.07,0,0,0-45.87-23.29c-8-3-15.8-6.58-23.92-9.34-8-2.94-16.26-5.41-24.53-7.71l-12.48-3.17-12.61-2.62c-1.05-.21-2.1-.47-3.16-.63l-3.18-.51-6.36-1-6.37-1-6.41-.74c-34.17-4.27-68.9-3.57-103.22.28a598.32,598.32,0,0,0-101.55,21l-.2-.66A600.23,600.23,0,0,1,841.68,275c34.42-4.67,69.45-6.21,104.21-2.68l6.52.61,6.49.88,6.49.9,3.25.45c1.08.14,2.15.38,3.23.57l12.9,2.37L997.54,281c8.48,2.15,16.93,4.48,25.23,7.29,4.2,1.28,8.28,2.88,12.39,4.39l3.08,1.15a32,32,0,0,1,3,1.24l5.95,2.82a281.56,281.56,0,0,1,45,26.88c3.55,2.53,7,5.27,10.38,8s6.69,5.59,9.89,8.54a162.24,162.24,0,0,1,18,18.87Z" transform="translate(-39.94 -57.5)" style="fill:#4c7436"/></g><path d="M742.39,349.92s18,82,161.31,23.74,199.78-30.07,199.78-30.07S883.46,205.54,742.39,349.92Z" transform="translate(-39.94 -57.5)" style="fill:#4c7436;opacity:0.2"/><path d="M749.48,259.59c-4.63-1.25-138.24,160,137.29,201.17,145.68,21.75,156.39,73,156.39,73s.39.18.53-.14C1053.17,512,1072.3,281,850.95,286.28l-35.66-5.2S820.45,278.89,749.48,259.59Z" transform="translate(-39.94 -57.5)" style="fill:#b8d54a"/><g style="opacity:0.30000000000000004"><path d="M1043.33,533.81a148.5,148.5,0,0,0-7.34-22.95,218.23,218.23,0,0,0-10.14-21.8l-1.39-2.66-1.48-2.61-3-5.22-3.15-5.11c-1-1.7-2.08-3.41-3.22-5.06-2.23-3.32-4.38-6.68-6.78-9.87l-3.51-4.85c-1.19-1.6-2.45-3.15-3.67-4.73l-7.36-9.42-3.66-4.73-3.84-4.58L981,425.65c-1.28-1.53-2.67-3-4-4.45-2.72-2.92-5.31-6-8.18-8.74l-4.22-4.25c-1.43-1.4-2.77-2.88-4.27-4.21l-8.79-8.16c-3-2.67-6.07-5.21-9.1-7.82-1.54-1.28-3-2.64-4.61-3.85l-4.73-3.7-4.73-3.7c-.79-.61-1.57-1.24-2.37-1.84l-2.44-1.75-9.77-7c-1.61-1.2-3.33-2.23-5-3.35l-5-3.3-5-3.3c-1.67-1.11-3.43-2.08-5.14-3.13l-10.33-6.18c-1.7-1.07-3.5-2-5.26-2.94l-5.29-2.88-5.29-2.88-2.65-1.44-2.7-1.33-10.81-5.34a596,596,0,0,0-90.11-34.47l.17-.6a597.69,597.69,0,0,1,91.13,32.53l11,5.12,2.75,1.28,2.7,1.39,5.39,2.78,5.39,2.78c1.79.95,3.62,1.81,5.36,2.84l10.55,6c1.75,1,3.55,2,5.25,3L906,356l5.15,3.22c1.7,1.09,3.47,2.1,5.12,3.27l10,6.86,2.51,1.72c.83.59,1.63,1.21,2.44,1.81l4.87,3.64,4.88,3.64c1.65,1.19,3.17,2.53,4.76,3.79,3.13,2.58,6.33,5.09,9.41,7.73l9.12,8.08c1.55,1.32,3,2.79,4.43,4.18l4.39,4.23c3,2.77,5.7,5.8,8.54,8.72,1.39,1.48,2.84,2.91,4.19,4.44l4,4.58,4,4.59,3.85,4.75c1.27,1.59,2.59,3.15,3.83,4.77l3.45,5.06c1.14,1.69,2.32,3.35,3.42,5.07l3.24,5.18c2.22,3.41,4.19,7,6.22,10.5,1,1.75,2,3.55,2.92,5.35l2.84,5.39,2.65,5.49,1.32,2.74,1.23,2.79a220.79,220.79,0,0,1,8.77,22.68,149.37,149.37,0,0,1,5.83,23.52Z" transform="translate(-39.94 -57.5)" style="fill:#4c7436"/></g><path d="M739.19,334.32s-23.47,69.85,117.49,97.36S1029.6,508.1,1029.6,508.1,918.09,296.82,739.19,334.32Z" transform="translate(-39.94 -57.5)" style="fill:#4c7436;opacity:0.2"/><path d="M722.38,259.34l46.39,4.5,62.72,28.3,142.27,3.06,31.88-1.21L1094,270.55s-2.86-37,39-56.55c0,0,28.74,16,5.22,56.72l3.82,18.36,58.9-14.53,53.54-4.59V325l-47.42,8.42L1087,351.81l-100.2,2.29-159.1,1.53-90.25,1.53L709,349.71S663.49,267.76,722.38,259.34Z" transform="translate(-39.94 -57.5)" style="fill:#fff"/><path d="M744.9,289.67a46.45,46.45,0,0,1,20.87,5.56q9.46,5.15,14,13.09c3,5.3,4.46,11.62,4.32,19-.22,11.73-4.5,20.66-13,26.71a45,45,0,0,1-28.58,8.51,43.35,43.35,0,0,1-20.34-5.66,34.21,34.21,0,0,1-17.81-32.43A34.45,34.45,0,0,1,716.71,299C724.4,292.34,733.77,289.24,744.9,289.67Zm.2,6.81a14,14,0,0,0-12.33,6.07c-3.17,4.23-5,11.84-5.43,22.8q-.69,17.12,3.61,23.76a14.29,14.29,0,0,0,12.08,7,14.91,14.91,0,0,0,12.93-6.2q5-6.51,5.46-22.82.46-16.75-4-23.51A14.69,14.69,0,0,0,745.09,296.48Z" transform="translate(-39.94 -57.5)" style="fill:#fff;stroke:#fff;stroke-width:25.865052539587px"/><path d="M832.95,355.56q0,3.33,0,6.66-24.39-.11-48.81-.64.06-3.33.12-6.66l6,.12c2.48.06,4.29-.38,5.45-1.3A4.56,4.56,0,0,0,797.5,350q.26-19.82.55-39.65.07-4.8-2.11-7.06a8.52,8.52,0,0,0-6.22-2.34l-3.85-.08q.06-3.15.12-6.3,14.59-.43,29.15-1-.1,10.91-.2,21.83,2.67-10.91,9-16.72a20.53,20.53,0,0,1,14.3-5.8c4.51,0,8.07,1.19,10.7,3.55a11.74,11.74,0,0,1,4,9.12,11,11,0,0,1-2.71,7.77,8.75,8.75,0,0,1-6.7,3,8.16,8.16,0,0,1-6.05-2.58,9.13,9.13,0,0,1-2.53-6.6,10.77,10.77,0,0,1,1.21-4.65,5.37,5.37,0,0,0,.64-1.93,1.91,1.91,0,0,0-.49-1.46,2,2,0,0,0-1.48-.48c-1.73,0-3.66,1-5.74,3q-4.83,4.61-8.16,14.43a62.14,62.14,0,0,0-3.44,19.82q0,7.24-.08,14.47a5,5,0,0,0,1.39,3.84,5.56,5.56,0,0,0,3.94,1.35Z" transform="translate(-39.94 -57.5)" style="fill:#fff;stroke:#fff;stroke-width:25.865052539587px"/><path d="M907.77,294.53c5.65-7,11.29-10.53,17-10.69a9.64,9.64,0,0,1,7,2.29,8.5,8.5,0,0,1,2.83,6.35,7.72,7.72,0,0,1-1.8,5.67,6.65,6.65,0,0,1-5,2.27c-2.86.09-5-1.36-6.33-4.32-.84-1.79-1.78-2.67-2.85-2.65-1.36,0-3.15,1.51-5.42,4.4,5.39,5.07,8.21,10.47,8.39,16.23a20.92,20.92,0,0,1-3.37,12.26c-2.38,3.68-6.11,6.66-11.14,8.93s-11.38,3.45-19,3.59l-7.9,0c-5.86.07-9.83.67-11.89,1.83s-3.14,2.63-3.14,4.44a3.77,3.77,0,0,0,2,3.47q2.63,1.54,8.32,1.48l6.83-.29c7.37-.49,12.76-.79,16.23-.85,11.51-.22,19.55,1.14,24.15,4.17A15.23,15.23,0,0,1,930,366a19.22,19.22,0,0,1-7.29,16.35c-6.25,5.14-17.38,7.92-33.39,8.17-13.65.21-23.26-1.22-28.8-4.21s-8.32-6.51-8.35-10.57a8.42,8.42,0,0,1,3.45-6.68c2.33-1.91,7.28-3.72,14.81-5.47-4.94-.9-8.65-2.51-11.17-4.79a11.56,11.56,0,0,1-3.78-8.86,13,13,0,0,1,2.71-8.39c1.83-2.3,5.14-4.34,9.89-6.14A27.81,27.81,0,0,1,857.76,327a19.28,19.28,0,0,1-3.5-11.21,21.34,21.34,0,0,1,3.66-12.28q3.67-5.49,11.34-8.8t18.69-3.48a56.17,56.17,0,0,1,10.18.74A52.85,52.85,0,0,1,907.77,294.53ZM918.42,373c-.09-2.83-1.79-4.83-5.12-6-2.26-.85-7.24-1.18-15-1-13.92.29-22.88,1.27-26.88,3.12s-6,4.14-6,6.84,1.64,4.73,4.81,6.44,9.17,2.53,18,2.4c11.46-.18,19.69-1.63,24.66-4.28C916.68,378.35,918.51,375.86,918.42,373Zm-30.8-75.47q-5,.07-8.53,4.74t-3.42,13.32q.11,8.38,3.77,12.76a11,11,0,0,0,8.89,4.32c3.44-.06,6.34-1.64,8.73-4.73s3.49-7.42,3.37-13S899,305.06,896.49,302,891.05,297.44,887.62,297.5Z" transform="translate(-39.94 -57.5)" style="fill:#fff;stroke:#fff;stroke-width:25.865052539587px"/><path d="M1012.57,348.88l3.45,5a32.67,32.67,0,0,1-7.85,4.64,26.22,26.22,0,0,1-7.84,1.6c-4.26.23-7.74-.46-10.48-2.06s-5.3-4.75-7.73-9.45Q975,356.14,969.06,359a33.41,33.41,0,0,1-13.49,3.18q-10.48.42-16.55-4a14.5,14.5,0,0,1-6.29-11.62c-.25-7.2,3.14-13.07,10.13-17.67,5.59-3.64,18-7.52,37.16-11.9q-.25-4.82-.5-9.64a12.29,12.29,0,0,0-4.32-9.15c-2.7-2.29-6.19-3.32-10.5-3.13a17.83,17.83,0,0,0-8.61,2.45c-1.66,1-2.47,1.92-2.43,2.82a4.67,4.67,0,0,0,1,2.1A12,12,0,0,1,957,308.7a8.31,8.31,0,0,1-2.43,6.59,10.22,10.22,0,0,1-7.14,2.74,11,11,0,0,1-7.85-2.4,9,9,0,0,1-3.19-6.79q-.24-7,7.2-12.51,9.26-6.93,23.37-7.54A51.8,51.8,0,0,1,986,291.16a17.85,17.85,0,0,1,9,6.79,23.49,23.49,0,0,1,4.05,12.57q1,17,2,33.93c.16,2.58.76,4.41,1.83,5.5a5.09,5.09,0,0,0,4.18,1.47C1008.52,351.34,1010.34,350.49,1012.57,348.88Zm-32.23-25.68C970,325.1,963,327.52,959.4,330.56a13.72,13.72,0,0,0-5.07,11.64c.15,3.34,1.13,5.86,3,7.58a9.76,9.76,0,0,0,7.49,2.36,16,16,0,0,0,11.93-5.61q4.57-5.32,4.11-14.11Q980.58,327.8,980.33,323.19Z" transform="translate(-39.94 -57.5)" style="fill:#fff;stroke:#fff;stroke-width:25.865052539587px"/><path d="M1105.51,343.31l.66,6.62q-20.8,2-41.64,3.63l-.55-6.63,4.35-.34c2.31-.2,4-.9,5-2.14a6.83,6.83,0,0,0,1.26-5.14q-1.26-14.47-2.51-28.95-.62-7.41-4.39-11.09a11.41,11.41,0,0,0-9.31-3.23,15.58,15.58,0,0,0-11.91,6.54q-4.36,6-3.56,16.73.84,11.17,1.69,22.35a6.71,6.71,0,0,0,2.12,4.87,6.14,6.14,0,0,0,4.6,1.38l5.24-.4.53,6.64q-21.65,1.66-43.35,3l-.44-6.64,5.63-.35a6.57,6.57,0,0,0,4.8-2,6.87,6.87,0,0,0,1.31-5.11q-1.37-19.89-2.71-39.77a6.87,6.87,0,0,0-2.72-5.31,9.25,9.25,0,0,0-6.34-1.64l-2.89.18-.4-6.21q14.11-1.61,28.19-3.37a105.22,105.22,0,0,1,3.39,14.46,44.41,44.41,0,0,1,11.73-12.79,27.73,27.73,0,0,1,13.79-5c6.72-.56,12.19,1.19,16.49,5.27s6.72,10.06,7.46,17.94q1.43,15.46,2.88,30.92c.23,2.39.95,4,2.19,5s3.06,1.29,5.53,1.08Z" transform="translate(-39.94 -57.5)" style="fill:#fff;stroke:#fff;stroke-width:25.865052539587px"/><path d="M1100.2,283.21q14.92-2.1,29.8-4.36,3,28.29,6.14,56.57a4.32,4.32,0,0,0,1.89,3.36,7.09,7.09,0,0,0,4.73.75l4.64-.5.75,6.61q-20.71,2.28-41.46,4.25l-.65-6.63,4.57-.44c2.45-.23,4.13-1,5-2.14s1.2-3.13.92-5.84q-2-19.29-3.92-38.59a7.37,7.37,0,0,0-2.7-5.43,8.39,8.39,0,0,0-6.08-1.41l-3,.28Z" transform="translate(-39.94 -57.5)" style="fill:#fff;stroke:#fff;stroke-width:25.865052539587px"/><path d="M1213,313.31l6,1.86a35.92,35.92,0,0,1-11.35,19.18q-8.46,7.37-21.38,9c-11.62,1.45-21.1-.56-28.32-6s-11.42-13.3-12.6-23.68c-1.26-11.2,1.53-20.8,8.26-28.87s16.26-12.86,28.67-14.41q13.4-1.7,21.2,2.68c5.21,2.93,8.19,6.93,8.9,12q.75,5.52-1.95,9.18a11.08,11.08,0,0,1-7.83,4.34,10,10,0,0,1-7.47-1.59,8.71,8.71,0,0,1-3.5-6.23c-.3-2.31.31-5.14,1.84-8.46a6.53,6.53,0,0,0,.86-2.85c-.11-.95-1-1.71-2.57-2.27a17,17,0,0,0-8.51-.71c-6.34.8-10.67,3.34-13,7.67q-4.75,8.58-2.82,24.56t8.5,21.79a19.05,19.05,0,0,0,15.69,4.66,22.49,22.49,0,0,0,12.93-6.4Q1210.32,323.29,1213,313.31Z" transform="translate(-39.94 -57.5)" style="fill:#fff;stroke:#fff;stroke-width:25.865052539587px"/><path d="M1258.2,265.53l3.81-6.3,4.33-.69q2.51,11.2,5,22.39l-5.82.91c-4-5.53-8-9.24-12.06-11.11a23.71,23.71,0,0,0-13.84-1.66c-4.48.65-7.76,2-9.86,4a7.79,7.79,0,0,0-2.58,7,6.82,6.82,0,0,0,3.57,5.42c2,1.11,7.23,1.9,15.64,2.29q11.44.53,15.34,1.44a24.51,24.51,0,0,1,12.25,6.48,21.51,21.51,0,0,1,6,12.09c1,6.12-.67,11.68-5.09,16.64s-10.78,8.1-19.08,9.36a40.28,40.28,0,0,1-11.08.22,37.09,37.09,0,0,1-10.85-3.39l-4.38,6.69-5.58.77q-2.44-12.45-4.85-24.9l6-.84c6.95,11.94,16.77,17,29.36,15.13q7.75-1.16,11.39-4.7c2.41-2.36,3.4-4.89,3-7.57a6.69,6.69,0,0,0-3.43-5.2c-1.91-1-6.61-1.68-14.15-2.05-8.12-.38-13.7-1-16.7-1.67-5.16-1.13-9.21-3.19-12.14-6.12a19.4,19.4,0,0,1-5.35-11.36,21.62,21.62,0,0,1,4.4-17.18q5.76-7.28,16.89-8.9a34.94,34.94,0,0,1,9.95-.18A37.56,37.56,0,0,1,1258.2,265.53Z" transform="translate(-39.94 -57.5)" style="fill:#fff;stroke:#fff;stroke-width:25.865052539587px"/><path d="M744.9,289.67a46.45,46.45,0,0,1,20.87,5.56q9.46,5.15,14,13.09c3,5.3,4.46,11.62,4.32,19-.22,11.73-4.5,20.66-13,26.71a45,45,0,0,1-28.58,8.51,43.35,43.35,0,0,1-20.34-5.66,34.21,34.21,0,0,1-17.81-32.43A34.45,34.45,0,0,1,716.71,299C724.4,292.34,733.77,289.24,744.9,289.67Zm.2,6.81a14,14,0,0,0-12.33,6.07c-3.17,4.23-5,11.84-5.43,22.8q-.69,17.12,3.61,23.76a14.29,14.29,0,0,0,12.08,7,14.91,14.91,0,0,0,12.93-6.2q5-6.51,5.46-22.82.46-16.75-4-23.51A14.69,14.69,0,0,0,745.09,296.48Z" transform="translate(-39.94 -57.5)" style="fill:#4c7436"/><path d="M832.95,355.56q0,3.33,0,6.66-24.39-.11-48.81-.64.06-3.33.12-6.66l6,.12c2.48.06,4.29-.38,5.45-1.3A4.56,4.56,0,0,0,797.5,350q.26-19.82.55-39.65.07-4.8-2.11-7.06a8.52,8.52,0,0,0-6.22-2.34l-3.85-.08q.06-3.15.12-6.3,14.59-.43,29.15-1-.1,10.91-.2,21.83,2.67-10.91,9-16.72a20.53,20.53,0,0,1,14.3-5.8c4.51,0,8.07,1.19,10.7,3.55a11.74,11.74,0,0,1,4,9.12,11,11,0,0,1-2.71,7.77,8.75,8.75,0,0,1-6.7,3,8.16,8.16,0,0,1-6.05-2.58,9.13,9.13,0,0,1-2.53-6.6,10.77,10.77,0,0,1,1.21-4.65,5.37,5.37,0,0,0,.64-1.93,1.91,1.91,0,0,0-.49-1.46,2,2,0,0,0-1.48-.48c-1.73,0-3.66,1-5.74,3q-4.83,4.61-8.16,14.43a62.14,62.14,0,0,0-3.44,19.82q0,7.24-.08,14.47a5,5,0,0,0,1.39,3.84,5.56,5.56,0,0,0,3.94,1.35Z" transform="translate(-39.94 -57.5)" style="fill:#4c7436"/><path d="M907.77,294.53c5.65-7,11.29-10.53,17-10.69a9.64,9.64,0,0,1,7,2.29,8.5,8.5,0,0,1,2.83,6.35,7.72,7.72,0,0,1-1.8,5.67,6.65,6.65,0,0,1-5,2.27c-2.86.09-5-1.36-6.33-4.32-.84-1.79-1.78-2.67-2.85-2.65-1.36,0-3.15,1.51-5.42,4.4,5.39,5.07,8.21,10.47,8.39,16.23a20.92,20.92,0,0,1-3.37,12.26c-2.38,3.68-6.11,6.66-11.14,8.93s-11.38,3.45-19,3.59l-7.9,0c-5.86.07-9.83.67-11.89,1.83s-3.14,2.63-3.14,4.44a3.77,3.77,0,0,0,2,3.47q2.63,1.54,8.32,1.48l6.83-.29c7.37-.49,12.76-.79,16.23-.85,11.51-.22,19.55,1.14,24.15,4.17A15.23,15.23,0,0,1,930,366a19.22,19.22,0,0,1-7.29,16.35c-6.25,5.14-17.38,7.92-33.39,8.17-13.65.21-23.26-1.22-28.8-4.21s-8.32-6.51-8.35-10.57a8.42,8.42,0,0,1,3.45-6.68c2.33-1.91,7.28-3.72,14.81-5.47-4.94-.9-8.65-2.51-11.17-4.79a11.56,11.56,0,0,1-3.78-8.86,13,13,0,0,1,2.71-8.39c1.83-2.3,5.14-4.34,9.89-6.14A27.81,27.81,0,0,1,857.76,327a19.28,19.28,0,0,1-3.5-11.21,21.34,21.34,0,0,1,3.66-12.28q3.67-5.49,11.34-8.8t18.69-3.48a56.17,56.17,0,0,1,10.18.74A52.85,52.85,0,0,1,907.77,294.53ZM918.42,373c-.09-2.83-1.79-4.83-5.12-6-2.26-.85-7.24-1.18-15-1-13.92.29-22.88,1.27-26.88,3.12s-6,4.14-6,6.84,1.64,4.73,4.81,6.44,9.17,2.53,18,2.4c11.46-.18,19.69-1.63,24.66-4.28C916.68,378.35,918.51,375.86,918.42,373Zm-30.8-75.47q-5,.07-8.53,4.74t-3.42,13.32q.11,8.38,3.77,12.76a11,11,0,0,0,8.89,4.32c3.44-.06,6.34-1.64,8.73-4.73s3.49-7.42,3.37-13S899,305.06,896.49,302,891.05,297.44,887.62,297.5Z" transform="translate(-39.94 -57.5)" style="fill:#4c7436"/><path d="M1012.57,348.88l3.45,5a32.67,32.67,0,0,1-7.85,4.64,26.22,26.22,0,0,1-7.84,1.6c-4.26.23-7.74-.46-10.48-2.06s-5.3-4.75-7.73-9.45Q975,356.14,969.06,359a33.41,33.41,0,0,1-13.49,3.18q-10.48.42-16.55-4a14.5,14.5,0,0,1-6.29-11.62c-.25-7.2,3.14-13.07,10.13-17.67,5.59-3.64,18-7.52,37.16-11.9q-.25-4.82-.5-9.64a12.29,12.29,0,0,0-4.32-9.15c-2.7-2.29-6.19-3.32-10.5-3.13a17.83,17.83,0,0,0-8.61,2.45c-1.66,1-2.47,1.92-2.43,2.82a4.67,4.67,0,0,0,1,2.1A12,12,0,0,1,957,308.7a8.31,8.31,0,0,1-2.43,6.59,10.22,10.22,0,0,1-7.14,2.74,11,11,0,0,1-7.85-2.4,9,9,0,0,1-3.19-6.79q-.24-7,7.2-12.51,9.26-6.93,23.37-7.54A51.8,51.8,0,0,1,986,291.16a17.85,17.85,0,0,1,9,6.79,23.49,23.49,0,0,1,4.05,12.57q1,17,2,33.93c.16,2.58.76,4.41,1.83,5.5a5.09,5.09,0,0,0,4.18,1.47C1008.52,351.34,1010.34,350.49,1012.57,348.88Zm-32.23-25.68C970,325.1,963,327.52,959.4,330.56a13.72,13.72,0,0,0-5.07,11.64c.15,3.34,1.13,5.86,3,7.58a9.76,9.76,0,0,0,7.49,2.36,16,16,0,0,0,11.93-5.61q4.57-5.32,4.11-14.11Q980.58,327.8,980.33,323.19Z" transform="translate(-39.94 -57.5)" style="fill:#4c7436"/><path d="M1105.51,343.31l.66,6.62q-20.8,2-41.64,3.63l-.55-6.63,4.35-.34c2.31-.2,4-.9,5-2.14a6.83,6.83,0,0,0,1.26-5.14q-1.26-14.47-2.51-28.95-.62-7.41-4.39-11.09a11.41,11.41,0,0,0-9.31-3.23,15.58,15.58,0,0,0-11.91,6.54q-4.36,6-3.56,16.73.84,11.17,1.69,22.35a6.71,6.71,0,0,0,2.12,4.87,6.14,6.14,0,0,0,4.6,1.38l5.24-.4.53,6.64q-21.65,1.66-43.35,3l-.44-6.64,5.63-.35a6.57,6.57,0,0,0,4.8-2,6.87,6.87,0,0,0,1.31-5.11q-1.37-19.89-2.71-39.77a6.87,6.87,0,0,0-2.72-5.31,9.25,9.25,0,0,0-6.34-1.64l-2.89.18-.4-6.21q14.11-1.61,28.19-3.37a105.22,105.22,0,0,1,3.39,14.46,44.41,44.41,0,0,1,11.73-12.79,27.73,27.73,0,0,1,13.79-5c6.72-.56,12.19,1.19,16.49,5.27s6.72,10.06,7.46,17.94q1.43,15.46,2.88,30.92c.23,2.39.95,4,2.19,5s3.06,1.29,5.53,1.08Z" transform="translate(-39.94 -57.5)" style="fill:#4c7436"/><path d="M1100.2,283.21q14.92-2.1,29.8-4.36,3,28.29,6.14,56.57a4.32,4.32,0,0,0,1.89,3.36,7.09,7.09,0,0,0,4.73.75l4.64-.5.75,6.61q-20.71,2.28-41.46,4.25l-.65-6.63,4.57-.44c2.45-.23,4.13-1,5-2.14s1.2-3.13.92-5.84q-2-19.29-3.92-38.59a7.37,7.37,0,0,0-2.7-5.43,8.39,8.39,0,0,0-6.08-1.41l-3,.28Z" transform="translate(-39.94 -57.5)" style="fill:#4c7436"/><path d="M1213,313.31l6,1.86a35.92,35.92,0,0,1-11.35,19.18q-8.46,7.37-21.38,9c-11.62,1.45-21.1-.56-28.32-6s-11.42-13.3-12.6-23.68c-1.26-11.2,1.53-20.8,8.26-28.87s16.26-12.86,28.67-14.41q13.4-1.7,21.2,2.68c5.21,2.93,8.19,6.93,8.9,12q.75,5.52-1.95,9.18a11.08,11.08,0,0,1-7.83,4.34,10,10,0,0,1-7.47-1.59,8.71,8.71,0,0,1-3.5-6.23c-.3-2.31.31-5.14,1.84-8.46a6.53,6.53,0,0,0,.86-2.85c-.11-.95-1-1.71-2.57-2.27a17,17,0,0,0-8.51-.71c-6.34.8-10.67,3.34-13,7.67q-4.75,8.58-2.82,24.56t8.5,21.79a19.05,19.05,0,0,0,15.69,4.66,22.49,22.49,0,0,0,12.93-6.4Q1210.32,323.29,1213,313.31Z" transform="translate(-39.94 -57.5)" style="fill:#4c7436"/><path d="M1258.2,265.53l3.81-6.3,4.33-.69q2.51,11.2,5,22.39l-5.82.91c-4-5.53-8-9.24-12.06-11.11a23.71,23.71,0,0,0-13.84-1.66c-4.48.65-7.76,2-9.86,4a7.79,7.79,0,0,0-2.58,7,6.82,6.82,0,0,0,3.57,5.42c2,1.11,7.23,1.9,15.64,2.29q11.44.53,15.34,1.44a24.51,24.51,0,0,1,12.25,6.48,21.51,21.51,0,0,1,6,12.09c1,6.12-.67,11.68-5.09,16.64s-10.78,8.1-19.08,9.36a40.28,40.28,0,0,1-11.08.22,37.09,37.09,0,0,1-10.85-3.39l-4.38,6.69-5.58.77q-2.44-12.45-4.85-24.9l6-.84c6.95,11.94,16.77,17,29.36,15.13q7.75-1.16,11.39-4.7c2.41-2.36,3.4-4.89,3-7.57a6.69,6.69,0,0,0-3.43-5.2c-1.91-1-6.61-1.68-14.15-2.05-8.12-.38-13.7-1-16.7-1.67-5.16-1.13-9.21-3.19-12.14-6.12a19.4,19.4,0,0,1-5.35-11.36,21.62,21.62,0,0,1,4.4-17.18q5.76-7.28,16.89-8.9a34.94,34.94,0,0,1,9.95-.18A37.56,37.56,0,0,1,1258.2,265.53Z" transform="translate(-39.94 -57.5)" style="fill:#4c7436"/><path d="M1131.85,223.79s-18.48,8.51-25.07,49.88C1106.79,273.67,1148,268.21,1131.85,223.79Z" transform="translate(-39.94 -57.5)" style="fill:#b8d54a"/><path d="M822.74,192.5a108.51,108.51,0,0,1,44-8.93,96.86,96.86,0,0,1,12.47.79q-20.44,15.5-38.1,23.38-21.8,9.46-43.26,9.46h-4.16a35.75,35.75,0,0,1-4.15-.25q12.82-15.53,33.25-24.45Zm143.08,44.84Q979,230.25,982.13,220q-25,0-58.7,8.41Q895.63,236,866,243.78t-54,7.75a128.54,128.54,0,0,1-27.08-3.07q11.44-10.68,33.67-16.17,12.49-2.89,39.22-9.4A107.64,107.64,0,0,0,887.66,208q15.61-11.47,15.62-22.7c0-4.86-2.33-9.57-6.94-14.09q-10.77-10.94-32.62-11t-49.28,10.43q-24.28,9.12-37.81,19.8-7.66,6-15.62,22.42T746.43,232.5c-3,1.56-7.58,2.92-13.71,4a152.57,152.57,0,0,1-16.12,2.22h-8.69q-8.32,0-13,1.57c-3.14,1-4.68,3.32-4.68,6.82A21.09,21.09,0,0,0,691.6,253a11.09,11.09,0,0,0,5.56,6.3,20.42,20.42,0,0,0,9.71,2.23,64.67,64.67,0,0,0,10.6-1.12q6.4-1.11,12-2.12,11.45-2.23,15.29-2.24c2.31,0,4.73,1.08,7.28,3.24a85.34,85.34,0,0,0,11.8,9.16,51.67,51.67,0,0,0,18.75,7.81,118.72,118.72,0,0,0,23.94,2.16q26,0,55.19-8.71t56.23-17.16q42.7-12.36,47.9-15.25Z" transform="translate(-39.94 -57.5)" style="fill:#95013d;stroke:#231f20;stroke-width:2.84642px"/><path d="M165.47,209.47Q148,214.67,138,217.12c-12.45,3.29-22.4,4.9-29.8,4.9q-15.11,0-21.06-8.56a17.91,17.91,0,0,1-3.59-10.11q0-18,37.36-43.12,22.65-14.06,29.81-18.66,21.07-14.36,42.54-29,33.78-21.1,52.07-21.1,13.91,0,18.27,12.23-36.57,11.65-72.75,35.17a394.55,394.55,0,0,0-59.64,48h5.57q12.31,0,57.45-6.79t63.81-6.79q16.72,0,25.46,3.37t8.75,11.92q0,8.28-9.14,21.13-21.9,30.9-63.25,55.39A333.51,333.51,0,0,1,136,300.26q-19.09,5.49-21.88,6.1a69.91,69.91,0,0,1-14.72,1.84q-12.74,0-17.51-8a13.13,13.13,0,0,1-2.79-7.36q0-7.67,17.5-11L126,277.54q37.4-7.33,72.79-30.35a231.76,231.76,0,0,0,54.91-49,134.35,134.35,0,0,0-18.29-1.53q-18.3,0-43.71,6.12l-26.23,6.73Z" transform="translate(-39.94 -57.5)" style="fill:#95013d;stroke:#fff;stroke-linecap:round;stroke-linejoin:round;stroke-width:34.280300000000004px"/><path d="M336.44,230.15a163.69,163.69,0,0,1,62-11.84q19.27,0,34.08,4.56T455.23,237A300.58,300.58,0,0,1,400,256.94a232.75,232.75,0,0,1-57.65,7.41,175.23,175.23,0,0,1-20.84-1.3A137.41,137.41,0,0,1,302,259.4q5.18-17.43,34.43-29.25Zm79.05-77.72q16.49,0,24.72,15,6.18,11.42,6.18,28.28-45.67,3.9-59.4,5.7-33.31,4.43-59.4,13.5a182.28,182.28,0,0,0-36.4,16.34q-22,13.23-22,25.43a14.94,14.94,0,0,0,3.43,9.33,51.09,51.09,0,0,0,24.07,18.16q13.06,4.94,32.65,4.94,26.81,0,69.44-11.76,22.69-6.28,60.49-18,4.45,10,8.56,14.69,6.82,7.86,18.11,7.87,6.86,0,11.28-6.23A21.75,21.75,0,0,0,501.72,263q0-8.84-10-24.56t-11.34-23.5a237.3,237.3,0,0,0-10.65-39.51q-7.92-22.35-19.24-37.66a27.88,27.88,0,0,0-11-9.22,35.35,35.35,0,0,0-14.42-2.73q-13.39,0-38.12,9.86-7.54,2.84-21.29,8.56-13.39,4.4-26.43,8.83-31.95,11.67-31.94,24.12a12.82,12.82,0,0,0,3.25,8.17,25.71,25.71,0,0,0,5.5,5.45,9.64,9.64,0,0,0,5.31,1.42c3,0,6.64-1.45,11-4.39q3.77-2.33,12.36-8.26a300.65,300.65,0,0,1,28.51-14.73A199,199,0,0,1,404.18,154a46.71,46.71,0,0,1,11.31-1.56Z" transform="translate(-39.94 -57.5)" style="fill:none;stroke:#fff;stroke-linecap:round;stroke-linejoin:round;stroke-width:34.280300000000004px"/><path d="M577.26,201.32q31.09-15.46,63.72-15.47a92,92,0,0,1,17.18,1.56q-6.53,22.35-41.23,37.95a155.25,155.25,0,0,1-64.58,14.3,100.8,100.8,0,0,1-12.69-.79q6.53-22.08,37.6-37.55Zm53.06,32.1q17.53-9.1,27.84-14.07a172.46,172.46,0,0,1,5.28,23.23,178.73,178.73,0,0,1,1.87,26.87q0,18.16-4.82,31.79t-15.1,17a213.88,213.88,0,0,1-28,7.27,148.42,148.42,0,0,1-27.3,2.59,143.73,143.73,0,0,1-42.24-6.3q14.78-11.43,29.89-22.57a236.13,236.13,0,0,0-40.16,8.56q-26.09,8.29-26.1,18.94c0,3.64,2.27,7.26,6.85,10.9q8.59,7.25,25.25,10.38a215.51,215.51,0,0,0,39,3.11,353.41,353.41,0,0,0,39.33-2.21c13.15-1.48,23.88-3.07,32.1-4.81q20.95-4.68,29.19-17.17,6.17-9.61,6.18-26.52c0-.52-.24-4.85-.71-13s-.71-13.88-.71-17.17q0-8.84,2.88-44,1.28-15.61,1.29-26a168,168,0,0,0-1.05-18.46,89.34,89.34,0,0,0-3.24-16.51,30,30,0,0,0-5.66-11.06,14.73,14.73,0,0,0-11.64-5.72q-7.21,0-12.51,7.29c-3.55,4.87-7.82,7.82-12.86,8.86q-34.61,6.78-53.46,12.25-31.18,9.11-48.65,21.6-21.61,15.4-24.69,36.75A39.94,39.94,0,0,0,518,241c0,7.47,2.5,12.85,7.54,16.14,4.12,2.77,10.29,4.17,18.56,4.17a92.64,92.64,0,0,0,18-2q9.77-2,19.75-4.82,18.18-5.22,48.41-21.13Z" transform="translate(-39.94 -57.5)" style="fill:#95013d;stroke:#fff;stroke-linecap:round;stroke-linejoin:round;stroke-width:34.280300000000004px"/><path d="M814.68,194.22a107.25,107.25,0,0,1,43.49-8.84,94.7,94.7,0,0,1,12.34.79q-20.22,15.33-37.69,23.13-21.56,9.36-42.8,9.36H785.9a35.06,35.06,0,0,1-4.11-.25q12.68-15.36,32.89-24.18Zm141.53,44.35q13.05-7,16.13-17.15-24.73,0-58.06,8.31-27.5,7.55-56.84,15.22T804,252.61a127.19,127.19,0,0,1-26.79-3q11.32-10.57,33.31-16,12.35-2.85,38.79-9.3a106.4,106.4,0,0,0,29.54-14.7q15.44-11.34,15.45-22.45c0-4.81-2.31-9.46-6.87-13.94q-10.65-10.82-32.26-10.83t-48.75,10.32q-24,9-37.4,19.59-7.58,5.95-15.45,22.18t-14.42,19.34c-3,1.55-7.49,2.89-13.57,4a149.92,149.92,0,0,1-15.94,2.2h-8.59q-8.24,0-12.86,1.55c-3.11,1-4.63,3.29-4.63,6.75a20.92,20.92,0,0,0,1.36,5.83,11,11,0,0,0,5.5,6.23,20.23,20.23,0,0,0,9.61,2.21,63.74,63.74,0,0,0,10.48-1.11q6.34-1.1,11.84-2.1,11.32-2.2,15.12-2.21c2.29,0,4.67,1.06,7.21,3.2a84.29,84.29,0,0,0,11.67,9.06,51.17,51.17,0,0,0,18.55,7.72,117.51,117.51,0,0,0,23.68,2.13q25.74,0,54.6-8.62t55.62-17q42.23-12.22,47.38-15.08Z" transform="translate(-39.94 -57.5)" style="fill:#95013d;stroke:#fff;stroke-linecap:round;stroke-linejoin:round;stroke-width:34.280300000000004px"/><path d="M160.69,216.33Q143,221.58,133,224.06q-18.88,5-30.13,5-15.28,0-21.3-8.66c-2.41-3.52-3.63-6.91-3.63-10.22q0-18.24,37.77-43.59,22.9-14.22,30.14-18.87,21.3-14.52,43-29.36Q223,97,241.47,97q14.06,0,18.47,12.35-37,11.78-73.54,35.56a398.7,398.7,0,0,0-60.3,48.53h5.63q12.44,0,58.08-6.87t64.51-6.86q16.91,0,25.73,3.41t8.84,12.06q0,8.36-9.25,21.36-22.14,31.25-63.95,56a337.16,337.16,0,0,1-84.86,35.59q-19.3,5.55-22.12,6.17a70.49,70.49,0,0,1-14.89,1.86q-12.88,0-17.7-8.06a13.26,13.26,0,0,1-2.82-7.43q0-7.76,17.69-11.15l29.77-4.35q37.81-7.41,73.59-30.68a234.23,234.23,0,0,0,55.52-49.58,135.79,135.79,0,0,0-18.49-1.55q-18.5,0-44.19,6.18-13.25,3.42-26.52,6.81Z" transform="translate(-39.94 -57.5)" style="fill:none;stroke:#076cb5;stroke-linecap:round;stroke-linejoin:round;stroke-width:15.2355px"/><path d="M327,227.43a165.52,165.52,0,0,1,62.65-12q19.48,0,34.45,4.61t23,14.33A304.15,304.15,0,0,1,391.2,254.5,235.5,235.5,0,0,1,332.92,262a177.91,177.91,0,0,1-21.07-1.32A138.34,138.34,0,0,1,292.18,257q5.24-17.61,34.81-29.56Zm79.92-78.57q16.67,0,25,15.21,6.25,11.54,6.25,28.59-46.17,3.94-60,5.77-33.68,4.47-60,13.64a184.3,184.3,0,0,0-36.8,16.52Q259,242,259.05,254.3a15.11,15.11,0,0,0,3.47,9.43,51.63,51.63,0,0,0,24.33,18.36q13.2,5,33,5,27.11,0,70.2-11.89Q413,268.86,451.21,257q4.5,10.09,8.65,14.85,6.9,8,18.31,8,6.93,0,11.41-6.3a22,22,0,0,0,4.5-12.86q0-8.93-10.06-24.82T472.56,212a240,240,0,0,0-10.76-39.94q-8-22.59-19.45-38.08a28.19,28.19,0,0,0-11.11-9.33,35.8,35.8,0,0,0-14.58-2.76q-13.53,0-38.53,10-7.63,2.89-21.53,8.66-13.53,4.46-26.72,8.93-32.3,11.8-32.29,24.38a12.94,12.94,0,0,0,3.29,8.26,26.12,26.12,0,0,0,5.56,5.52,9.79,9.79,0,0,0,5.37,1.43c3,0,6.72-1.47,11.11-4.44q3.81-2.35,12.49-8.35a304,304,0,0,1,28.82-14.89,201.84,201.84,0,0,1,31.25-11,47.17,47.17,0,0,1,11.44-1.57Z" transform="translate(-39.94 -57.5)" style="fill:#95013d;stroke:#076cb5;stroke-linecap:round;stroke-linejoin:round;stroke-width:15.2355px"/><path d="M570.45,198.28q31.43-15.63,64.42-15.63a93.52,93.52,0,0,1,17.37,1.57q-6.61,22.6-41.68,38.37A157,157,0,0,1,545.27,237a102.05,102.05,0,0,1-12.84-.8q6.6-22.32,38-38Zm53.64,32.46q17.72-9.21,28.15-14.22A174.37,174.37,0,0,1,657.57,240a180.13,180.13,0,0,1,1.9,27.16q0,18.36-4.88,32.14t-15.27,17.18A216.2,216.2,0,0,1,611,323.83a150.27,150.27,0,0,1-27.6,2.62,145.22,145.22,0,0,1-42.7-6.37q14.94-11.56,30.23-22.81a238.52,238.52,0,0,0-40.6,8.65Q504,314.29,504,325.06c0,3.68,2.3,7.34,6.93,11q8.68,7.34,25.53,10.49a217.31,217.31,0,0,0,39.38,3.14,357.19,357.19,0,0,0,39.76-2.23q19.95-2.24,32.45-4.87,21.17-4.73,29.51-17.36,6.24-9.71,6.24-26.81,0-.78-.71-13.14c-.5-8.24-.71-14-.71-17.36q0-8.93,2.91-44.43,1.29-15.79,1.31-26.3a170.33,170.33,0,0,0-1.07-18.67,90.51,90.51,0,0,0-3.27-16.69,30.54,30.54,0,0,0-5.73-11.19,14.88,14.88,0,0,0-11.77-5.78q-7.29,0-12.65,7.38t-13,9q-35,6.85-54,12.39-31.52,9.21-49.18,21.84Q514,211,510.9,232.6a40.67,40.67,0,0,0-.33,5.8c0,7.56,2.52,13,7.62,16.32,4.16,2.81,10.41,4.21,18.77,4.21a93.44,93.44,0,0,0,18.22-2q9.87-2,20-4.87,18.37-5.28,48.94-21.35Z" transform="translate(-39.94 -57.5)" style="fill:#95013d;stroke:#076cb5;stroke-linecap:round;stroke-linejoin:round;stroke-width:15.2355px"/><path d="M810.46,191.09a108.45,108.45,0,0,1,44-8.93,95.64,95.64,0,0,1,12.46.8q-20.44,15.49-38.09,23.38-21.81,9.46-43.26,9.46h-4.16a34.38,34.38,0,0,1-4.15-.26Q790,200,810.46,191.09Zm143.08,44.84q13.2-7.08,16.31-17.34-25,0-58.7,8.41-27.8,7.63-57.46,15.38t-54,7.75a128.49,128.49,0,0,1-27.07-3.07q11.44-10.69,33.66-16.17,12.49-2.88,39.22-9.39a107.72,107.72,0,0,0,29.86-14.87Q891,195.16,891,183.93c0-4.86-2.33-9.57-6.95-14.09q-10.76-10.94-32.62-11t-49.28,10.43q-24.28,9.12-37.82,19.8-7.65,6-15.62,22.42t-14.57,19.55q-4.52,2.34-13.71,4a150.91,150.91,0,0,1-16.12,2.22h-8.68q-8.33,0-13,1.57c-3.14,1-4.68,3.32-4.68,6.82a21.06,21.06,0,0,0,1.37,5.89,11.14,11.14,0,0,0,5.57,6.3,20.45,20.45,0,0,0,9.71,2.23,64.68,64.68,0,0,0,10.6-1.12q6.4-1.12,12-2.12,11.45-2.23,15.28-2.24c2.32,0,4.73,1.07,7.29,3.24a85.75,85.75,0,0,0,11.8,9.16,51.76,51.76,0,0,0,18.75,7.81,118.75,118.75,0,0,0,23.94,2.16q26,0,55.2-8.72t56.23-17.16q42.69-12.36,47.89-15.25Z" transform="translate(-39.94 -57.5)" style="fill:#95013d;stroke:#076cb5;stroke-linecap:round;stroke-linejoin:round;stroke-width:15.2355px"/><path d="M164,213.05q-17.68,5.26-27.73,7.73-18.88,5-30.13,5-15.28,0-21.3-8.66c-2.41-3.51-3.62-6.9-3.62-10.22q0-18.24,37.77-43.59,22.91-14.22,30.14-18.87,21.31-14.51,43-29.36,34.16-21.32,52.65-21.33,14.06,0,18.47,12.36-37,11.78-73.54,35.56a398.72,398.72,0,0,0-60.3,48.53H135q12.44,0,58.08-6.86t64.51-6.86q16.91,0,25.73,3.4t8.84,12.06q0,8.36-9.25,21.36-22.14,31.25-63.94,56a337.22,337.22,0,0,1-84.86,35.59Q114.82,310.39,112,311a70.45,70.45,0,0,1-14.89,1.86q-12.88,0-17.7-8.06c-1.87-2.69-2.81-5.16-2.81-7.44q0-7.75,17.69-11.14,14.89-2.19,29.77-4.35,37.81-7.42,73.59-30.68a234.22,234.22,0,0,0,55.52-49.58,135.77,135.77,0,0,0-18.49-1.55q-18.5,0-44.19,6.18-13.26,3.42-26.52,6.8Z" transform="translate(-39.94 -57.5)" style="fill:#cd1543"/><path d="M327,227.43a165.54,165.54,0,0,1,62.65-12q19.48,0,34.45,4.61t23,14.33A304.09,304.09,0,0,1,391.2,254.5,235.48,235.48,0,0,1,332.92,262a177.92,177.92,0,0,1-21.07-1.32A138.3,138.3,0,0,1,292.18,257q5.24-17.61,34.81-29.56Zm79.92-78.57q16.67,0,25,15.21,6.25,11.54,6.25,28.59-46.17,3.94-60,5.77-33.68,4.47-60,13.64a184.38,184.38,0,0,0-36.8,16.52Q259,242,259,254.3a15.11,15.11,0,0,0,3.47,9.43,51.64,51.64,0,0,0,24.33,18.36q13.21,5,33,5,27.11,0,70.2-11.89Q413,268.86,451.21,257q4.49,10.09,8.65,14.85,6.9,8,18.31,8,6.94,0,11.41-6.3a22,22,0,0,0,4.5-12.86q0-8.93-10.06-24.82T472.55,212a239.68,239.68,0,0,0-10.76-39.94q-8-22.59-19.45-38.08a28.2,28.2,0,0,0-11.11-9.33,35.79,35.79,0,0,0-14.58-2.76q-13.53,0-38.53,10-7.63,2.89-21.53,8.66-13.53,4.46-26.72,8.93-32.3,11.8-32.29,24.38a12.94,12.94,0,0,0,3.29,8.26,26.18,26.18,0,0,0,5.57,5.52,9.78,9.78,0,0,0,5.37,1.43c3,0,6.72-1.47,11.11-4.44q3.81-2.35,12.49-8.35a304,304,0,0,1,28.83-14.89,201.7,201.7,0,0,1,31.24-11,47.19,47.19,0,0,1,11.44-1.57Z" transform="translate(-39.94 -57.5)" style="fill:#cd1543"/><path d="M570.44,198.28q31.43-15.63,64.42-15.63a93.53,93.53,0,0,1,17.37,1.57q-6.6,22.6-41.68,38.37A157,157,0,0,1,545.26,237a102,102,0,0,1-12.83-.8q6.6-22.32,38-38Zm53.64,32.46q17.72-9.21,28.15-14.22A174.38,174.38,0,0,1,657.57,240a180.18,180.18,0,0,1,1.89,27.16q0,18.36-4.88,32.14t-15.26,17.18a216,216,0,0,1-28.3,7.35,150.2,150.2,0,0,1-27.59,2.62,145.17,145.17,0,0,1-42.7-6.37q14.94-11.56,30.22-22.81a238.49,238.49,0,0,0-40.6,8.65Q504,314.29,504,325.06c0,3.68,2.29,7.34,6.93,11q8.68,7.34,25.53,10.49a217.42,217.42,0,0,0,39.39,3.14,357.12,357.12,0,0,0,39.76-2.23c13.3-1.5,24.14-3.11,32.46-4.87q21.17-4.73,29.51-17.36,6.24-9.71,6.25-26.81c0-.52-.25-4.9-.71-13.14s-.71-14-.71-17.36q0-8.93,2.91-44.43,1.3-15.79,1.31-26.3a170.31,170.31,0,0,0-1.06-18.67,90.49,90.49,0,0,0-3.27-16.69,30.38,30.38,0,0,0-5.73-11.19,14.88,14.88,0,0,0-11.77-5.78q-7.29,0-12.65,7.38c-3.59,4.92-7.91,7.9-13,9q-35,6.85-54,12.39-31.52,9.21-49.18,21.84Q514,211,510.9,232.6a40.67,40.67,0,0,0-.33,5.8c0,7.56,2.52,13,7.62,16.32,4.16,2.81,10.4,4.21,18.76,4.21a93.5,93.5,0,0,0,18.23-2q9.87-2,20-4.87,18.38-5.28,48.94-21.35Z" transform="translate(-39.94 -57.5)" style="fill:#cd1543"/><path d="M810.46,191.09a108.42,108.42,0,0,1,44-8.93,95.79,95.79,0,0,1,12.47.8q-20.44,15.49-38.1,23.38-21.8,9.46-43.26,9.46h-4.16a34.5,34.5,0,0,1-4.15-.26Q790,200,810.46,191.09Zm143.08,44.84q13.2-7.08,16.31-17.34-25,0-58.7,8.41-27.8,7.63-57.47,15.38t-54,7.75a128.54,128.54,0,0,1-27.08-3.07q11.44-10.69,33.67-16.17,12.49-2.88,39.22-9.39a107.8,107.8,0,0,0,29.86-14.87Q891,195.16,891,183.93c0-4.86-2.33-9.57-6.94-14.09q-10.77-10.94-32.62-11t-49.28,10.43q-24.28,9.12-37.82,19.8-7.66,6-15.62,22.42t-14.58,19.55q-4.51,2.34-13.71,4a151,151,0,0,1-16.12,2.22h-8.69q-8.32,0-13,1.57c-3.14,1-4.68,3.32-4.68,6.82a21.13,21.13,0,0,0,1.37,5.89,11.13,11.13,0,0,0,5.56,6.3,20.48,20.48,0,0,0,9.71,2.23,64.66,64.66,0,0,0,10.6-1.12q6.4-1.12,12-2.12,11.45-2.23,15.29-2.24c2.31,0,4.73,1.07,7.28,3.24a85.76,85.76,0,0,0,11.8,9.16,51.79,51.79,0,0,0,18.75,7.81,118.71,118.71,0,0,0,23.94,2.16q26,0,55.19-8.72t56.23-17.16q42.7-12.36,47.9-15.25Z" transform="translate(-39.94 -57.5)" style="fill:#cd1543"/><path d="M922.86,173.93a8.76,8.76,0,1,1,8.92,8.6,8.75,8.75,0,0,1-8.92-8.6Zm15.87-.29a7.12,7.12,0,1,0-7,7.22,7.08,7.08,0,0,0,7-7.22Zm-2.66,4.81-2.16,0-2.17-3.94-1.85,0,.07,4-1.86,0-.17-9.44,4.57-.09a5.28,5.28,0,0,1,2.57.4,2.68,2.68,0,0,1,1.15,2.42c0,1.75-.85,2.46-2.52,2.62l2.37,3.94Zm-3.45-5.36c1,0,1.78-.25,1.75-1.45s-1.37-1.24-2.28-1.22l-2.28,0,0,2.69,2.77-.06Z" transform="translate(-39.94 -57.5)" style="fill:#010101"/><rect x="950" y="385.28" width="275.09" height="28.21" transform="matrix(1, -0.09, 0.09, 1, -72.29, 45.05)" style="fill:#076cb5"/><path d="M966.59,405.14c-2.6-1-3.92-.84-6.54-.59l-1.29.12.47,5.1,4.31-.4a15.47,15.47,0,0,0,4.34-.82l.12,1.39a13.59,13.59,0,0,0-4.56-.13l-4.18.39.72,7.66.14,1.48.72-.06c3.11-.29,5-.47,7.84-2.15l.39.19-1.64,1.92a7.8,7.8,0,0,0-2,0l-7.18.66s.31-.42.18-1.83l-1.15-12.28a2.41,2.41,0,0,0-.44-1.35l6.71-.62a7.06,7.06,0,0,0,1.54-.23l1.82,1.26-.29.23Z" transform="translate(-39.94 -57.5)" style="fill:#fff;stroke:#fff;stroke-linecap:round;stroke-linejoin:round;stroke-width:1.18717134781182px"/><path d="M973.71,413.57l3.37-9.32,4,8.62-7.41.69Zm2.51-10.88.3.79L972.15,416a5.12,5.12,0,0,1-1.58,2.8l2.4-.22a2,2,0,0,1-.24-2.08l.81-2.42,7.77-.72.9,1.64c.31.59,1.19,1.89.42,2.69l3.05-.28a5,5,0,0,1-1.7-2.11l-6.22-12.73-1.54.15Z" transform="translate(-39.94 -57.5)" style="fill:#076cb5"/><path d="M973.71,413.57l3.37-9.32,4,8.62-7.41.69Zm2.51-10.88.3.79L972.15,416a5.12,5.12,0,0,1-1.58,2.8l2.4-.22a2,2,0,0,1-.24-2.08l.81-2.42,7.77-.72.9,1.64c.31.59,1.19,1.89.42,2.69l3.05-.28a5,5,0,0,1-1.7-2.11l-6.22-12.73-1.54.15Z" transform="translate(-39.94 -57.5)" style="fill:#fff;stroke:#fff;stroke-linecap:round;stroke-linejoin:round;stroke-width:1.18717134781182px"/><path d="M986.3,401.73a8.13,8.13,0,0,0,3.1.22l4.2-.39a30.79,30.79,0,0,0,4.64-.89l.25.1c-.79.52-1.49,1-2.22,1.49a8.91,8.91,0,0,0-4.35-.21l1.24,13.26a2.19,2.19,0,0,0,.43,1.34l-2.37.22a2.42,2.42,0,0,0,.33-1.44l-1.23-13.24c-2.17.18-5.6.48-6.24,1.14l-.19-.18,2.26-1.41Z" transform="translate(-39.94 -57.5)" style="fill:#fff;stroke:#fff;stroke-linecap:round;stroke-linejoin:round;stroke-width:1.18717134781182px"/><path d="M1004.25,400.08a2.52,2.52,0,0,0-.28,1.38l1.18,12.64a2.31,2.31,0,0,0,.54,1.43l-2.35.22a2,2,0,0,0,.2-1.61l-1.16-12.5a2.73,2.73,0,0,0-.48-1.33l2.35-.22Z" transform="translate(-39.94 -57.5)" style="fill:#fff;stroke:#fff;stroke-linecap:round;stroke-linejoin:round;stroke-width:1.18717134781182px"/><path d="M1027.43,414l-16.14-11.66,1,11.09c.09,1,.23,1,.59,1.42l-1.6.15a1.81,1.81,0,0,0,.44-1.52l-1.08-11.6-2.89-2.15,2.09-.19,16.76,12.15-1.13-12.13a1.82,1.82,0,0,0-.7-1.41l1.66-.15a1.55,1.55,0,0,0-.39,1.5l1.35,14.49Z" transform="translate(-39.94 -57.5)" style="fill:#fff;stroke:#fff;stroke-linecap:round;stroke-linejoin:round;stroke-width:1.18717134781182px"/><path d="M1047.85,397.91l-.24.21c-2.14-1.22-7.58-1.85-10.91-.73-3.89,1.3-5.4,3.29-5.73,6-.28,2.33,1.1,6.14,5.66,7.82,2.68,1,6.79,1,9.07-.08,2.57-1.22,2.22-2.44,2.06-4.12l-.15-1.68a2.27,2.27,0,0,0-.54-1.45l2.68-.25a2.29,2.29,0,0,0-.51,1.94l.19,2.09c.12,1.29-.05,1.37.62,2.27l-1.38.13a16.39,16.39,0,0,1-11.12,2.29c-4.39-.67-6.59-2.34-7.78-5.12a7.3,7.3,0,0,1,2.46-8.07c3.49-2.8,8.52-2.88,11.45-2.8.92,0,1.91.16,2.34-.22l1.81,1.73Z" transform="translate(-39.94 -57.5)" style="fill:#fff;stroke:#fff;stroke-linecap:round;stroke-linejoin:round;stroke-width:1.18717134781182px"/><path d="M1071.18,395.4c-2.6-1-3.92-.83-6.54-.59l-1.29.12.48,5.1,4.31-.4a15.23,15.23,0,0,0,4.34-.82l.13,1.39a13.51,13.51,0,0,0-4.57-.13l-4.16.38.71,7.66.15,1.49.7-.07c3.12-.29,5-.47,7.86-2.15l.39.2-1.64,1.91a7.69,7.69,0,0,0-2,0l-7.18.66s.31-.42.18-1.83l-1.15-12.28a2.36,2.36,0,0,0-.45-1.34l6.72-.62a6.59,6.59,0,0,0,1.53-.22l1.82,1.26-.3.23Z" transform="translate(-39.94 -57.5)" style="fill:#fff;stroke:#fff;stroke-linecap:round;stroke-linejoin:round;stroke-width:1.18717134781182px"/><path d="M1078.2,395.3l4.81,4.62,3.49-4.74c1-1.33,1.33-1.84,1.05-2.85l2.06-.19a16,16,0,0,0-1.12,1.28l-5,6.94,6.65,6a13.83,13.83,0,0,0,1.54,1.13l-2.91.27c.11-.43.12-.58-.42-1.08l-5.7-5.16-4.14,4.75c-.78,1-1.28,1.48-.95,2.53l-2,.19a12.1,12.1,0,0,0,1.17-1.36l5.48-6.54-6.31-6.14a8.57,8.57,0,0,0-1.8-1.4l2.86-.26c.08.8.27,1.09,1.28,2Z" transform="translate(-39.94 -57.5)" style="fill:#fff;stroke:#fff;stroke-linecap:round;stroke-linejoin:round;stroke-width:1.18717134781182px"/><path d="M1094.79,402.84l-1-10.47c4.63-.43,6.49.06,8.18,1.16a4.33,4.33,0,0,1,1.64,5.11,6.1,6.1,0,0,1-4.35,3.57,25.51,25.51,0,0,1-4.5.62Zm-2.92-10.92a2.1,2.1,0,0,1,.43,1.3l1.18,12.63a2.24,2.24,0,0,1-.17,1.52l2.28-.22s-.42-.19-.54-1.46l-.21-2.31.61-.06c3.38-.31,6.77-.6,8.83-3.06a5,5,0,0,0,.11-6.41c-2.44-2.65-6.39-2.48-9.31-2.23l-3.21.3Z" transform="translate(-39.94 -57.5)" style="fill:#076cb5"/><path d="M1094.79,402.84l-1-10.47c4.63-.43,6.49.06,8.18,1.16a4.33,4.33,0,0,1,1.64,5.11,6.1,6.1,0,0,1-4.35,3.57,25.51,25.51,0,0,1-4.5.62Zm-2.92-10.92a2.1,2.1,0,0,1,.43,1.3l1.18,12.63a2.24,2.24,0,0,1-.17,1.52l2.28-.22s-.42-.19-.54-1.46l-.21-2.31.61-.06c3.38-.31,6.77-.6,8.83-3.06a5,5,0,0,0,.11-6.41c-2.44-2.65-6.39-2.48-9.31-2.23l-3.21.3Z" transform="translate(-39.94 -57.5)" style="fill:#fff;stroke:#fff;stroke-linecap:round;stroke-linejoin:round;stroke-width:1.18717134781182px"/><path d="M1117.14,391.12c-2.6-1-3.92-.83-6.54-.59l-1.29.12.47,5.1,4.32-.41a15.11,15.11,0,0,0,4.33-.81l.13,1.38a13.65,13.65,0,0,0-4.57-.13l-4.16.39.71,7.66.14,1.49.72-.08c3.11-.29,5-.46,7.83-2.14l.41.2-1.64,1.92a7.48,7.48,0,0,0-2,0l-7.18.67s.31-.42.18-1.83l-1.14-12.28a2.38,2.38,0,0,0-.44-1.34l6.72-.63a7.51,7.51,0,0,0,1.54-.21l1.82,1.26-.3.22Z" transform="translate(-39.94 -57.5)" style="fill:#fff;stroke:#fff;stroke-linecap:round;stroke-linejoin:round;stroke-width:1.18717134781182px"/><path d="M1128.82,394c-1.68.24-2.71.27-4.2.43l-.46-5,2.56-.23c1.33-.13,3.73-.27,4.89,1a1.79,1.79,0,0,1,.33,2.05,3.92,3.92,0,0,1-3.11,1.77Zm-6.52-4.92a5.06,5.06,0,0,1,.41,1.93l1.14,12.17a2.57,2.57,0,0,1-.2,1.35l2.3-.22a3.43,3.43,0,0,1-.54-1.35l-.74-8,9.15,7.3c.6.54.73.64.75,1.23l2.88-.27c.23,0-1-.58-1.17-.72l-9.43-7.77a31.39,31.39,0,0,0,3.5-.52c1.41-.37,2.69-.92,3.2-2.09a2.18,2.18,0,0,0-.63-2.5c-1.81-1.47-5.32-1.06-6.83-.93l-3.81.36Z" transform="translate(-39.94 -57.5)" style="fill:#076cb5"/><path d="M1128.82,394c-1.68.24-2.71.27-4.2.43l-.46-5,2.56-.23c1.33-.13,3.73-.27,4.89,1a1.79,1.79,0,0,1,.33,2.05,3.92,3.92,0,0,1-3.11,1.77Zm-6.52-4.92a5.06,5.06,0,0,1,.41,1.93l1.14,12.17a2.57,2.57,0,0,1-.2,1.35l2.3-.22a3.43,3.43,0,0,1-.54-1.35l-.74-8,9.15,7.3c.6.54.73.64.75,1.23l2.88-.27c.23,0-1-.58-1.17-.72l-9.43-7.77a31.39,31.39,0,0,0,3.5-.52c1.41-.37,2.69-.92,3.2-2.09a2.18,2.18,0,0,0-.63-2.5c-1.81-1.47-5.32-1.06-6.83-.93l-3.81.36Z" transform="translate(-39.94 -57.5)" style="fill:#fff;stroke:#fff;stroke-linecap:round;stroke-linejoin:round;stroke-width:1.18717134781182px"/><path d="M1141.54,387.29a2.39,2.39,0,0,0-.28,1.39l1.18,12.64a2.24,2.24,0,0,0,.54,1.41l-2.35.23a2,2,0,0,0,.19-1.61l-1.17-12.51a2.74,2.74,0,0,0-.47-1.34l2.35-.22Z" transform="translate(-39.94 -57.5)" style="fill:#fff;stroke:#fff;stroke-linecap:round;stroke-linejoin:round;stroke-width:1.18717134781182px"/><path d="M1157.39,387.37c-2.6-1-3.92-.83-6.54-.59l-1.29.12L1150,392l4.32-.4a15.23,15.23,0,0,0,4.33-.82l.14,1.39a13.7,13.7,0,0,0-4.57-.14l-4.17.39.71,7.66.14,1.49.72-.07c3.11-.29,5-.47,7.84-2.15l.39.2-1.64,1.91a8.2,8.2,0,0,0-2.05,0l-7.16.67s.3-.42.16-1.82l-1.14-12.29a2.4,2.4,0,0,0-.45-1.33l6.72-.63a6.71,6.71,0,0,0,1.53-.22l1.82,1.26-.3.23Z" transform="translate(-39.94 -57.5)" style="fill:#fff;stroke:#fff;stroke-linecap:round;stroke-linejoin:round;stroke-width:1.18717134781182px"/><path d="M1180.14,399.78,1164,388.12l1,11.09c.09,1,.23,1,.59,1.42l-1.6.14a1.78,1.78,0,0,0,.44-1.51l-1.09-11.6-2.88-2.14,2.09-.19,16.76,12.14-1.13-12.12a1.78,1.78,0,0,0-.71-1.41l1.65-.16a1.58,1.58,0,0,0-.37,1.5l1.34,14.5Z" transform="translate(-39.94 -57.5)" style="fill:#fff;stroke:#fff;stroke-linecap:round;stroke-linejoin:round;stroke-width:1.18717134781182px"/><path d="M1200.88,383.75l-.39.22a13,13,0,0,0-9-1.19c-3.06.64-5.55,1.75-7,4.42a6.52,6.52,0,0,0,1.36,7.9c2.35,2.28,5.68,2.76,8.82,2.68,2.15-.06,5.83-1,7.41-2.83l.48.12a23.4,23.4,0,0,0-1.32,2.29,7.13,7.13,0,0,0-1.88.05l-.45.1c-4.1.89-9.13,1.58-13-.57a6.73,6.73,0,0,1-3.53-7.9c.91-3,3.66-5.22,7.74-6.32a19.05,19.05,0,0,1,4.5-.58,19.59,19.59,0,0,1,2.29.1,3.22,3.22,0,0,0,2.28-.32l1.67,1.82Z" transform="translate(-39.94 -57.5)" style="fill:#fff;stroke:#fff;stroke-linecap:round;stroke-linejoin:round;stroke-width:1.18717134781182px"/><path d="M1213.5,382.15c-2.6-1-3.91-.84-6.54-.6l-1.28.12.47,5.1,4.31-.41a15,15,0,0,0,4.33-.81l.13,1.39a13.52,13.52,0,0,0-4.56-.13l-4.18.39.72,7.66.13,1.48.72-.06c3.11-.29,5-.46,7.84-2.15l.39.2-1.63,1.92a8.09,8.09,0,0,0-2,0l-7.17.67s.3-.41.17-1.82l-1.15-12.28a2.39,2.39,0,0,0-.44-1.34l6.72-.63a7,7,0,0,0,1.53-.22l1.81,1.27-.29.23Z" transform="translate(-39.94 -57.5)" style="fill:#fff;stroke:#fff;stroke-linecap:round;stroke-linejoin:round;stroke-width:1.18717134781182px"/><rect x="935.39" y="360.78" width="246.05" height="28.22" transform="translate(-67.33 31.34) rotate(-4.75)" style="fill:#076cb5"/><path d="M947.58,387.06l3.47-9.29,3.94,8.67-7.41.62Zm2.62-10.87.29.8L946,389.45a5.21,5.21,0,0,1-1.61,2.8l2.4-.2a2,2,0,0,1-.23-2.09l.84-2.41,7.78-.64.89,1.64c.31.58,1.16,1.91.39,2.71l3.06-.26a4.89,4.89,0,0,1-1.67-2.12l-6.1-12.8-1.54.12Z" transform="translate(-39.94 -57.5)" style="fill:#fff"/><path d="M947.58,387.06l3.47-9.29,3.94,8.67-7.41.62Zm2.62-10.87.29.8L946,389.45a5.21,5.21,0,0,1-1.61,2.8l2.4-.2a2,2,0,0,1-.23-2.09l.84-2.41,7.78-.64.89,1.64c.31.58,1.16,1.91.39,2.71l3.06-.26a4.89,4.89,0,0,1-1.67-2.12l-6.1-12.8-1.54.12Z" transform="translate(-39.94 -57.5)" style="fill:none;stroke:#fff;stroke-linecap:round;stroke-linejoin:round;stroke-width:1.18717134781182px"/><path d="M978.71,389.89l-16-11.82.92,11.1a1.7,1.7,0,0,0,.58,1.43l-1.6.14a1.83,1.83,0,0,0,.44-1.52l-1-11.61-2.85-2.16,2.09-.17,16.63,12.31-1-12.14a1.77,1.77,0,0,0-.69-1.41l1.66-.14c-.31.46-.48.47-.4,1.49l1.2,14.5Z" transform="translate(-39.94 -57.5)" style="fill:#fff;stroke:#fff;stroke-linecap:round;stroke-linejoin:round;stroke-width:1.18717134781182px"/><path d="M1001.7,373.47c-2.58-1-3.9-.88-6.53-.66l-1.29.1.43,5.1,4.32-.36a15.32,15.32,0,0,0,4.35-.77l.11,1.39a13.84,13.84,0,0,0-4.57-.18l-4.17.35.64,7.67.12,1.48.71-.06c3.13-.26,5-.42,7.87-2.07l.39.2-1.66,1.9a8,8,0,0,0-2,0l-7.19.6a3,3,0,0,0,.19-1.84l-1-12.29a2.36,2.36,0,0,0-.43-1.34l6.73-.56a7.43,7.43,0,0,0,1.53-.2l1.81,1.29-.3.22Z" transform="translate(-39.94 -57.5)" style="fill:#fff;stroke:#fff;stroke-linecap:round;stroke-linejoin:round;stroke-width:1.18717134781182px"/><path d="M1010.37,373.31l4.77,4.66,3.53-4.7c1-1.32,1.35-1.83,1.09-2.85l2.06-.17c-.37.4-.83.85-1.14,1.27l-5.07,6.87,6.59,6.11a16,16,0,0,0,1.53,1.16l-2.91.24c.11-.43.12-.59-.41-1.09l-5.65-5.22-4.19,4.72c-.77,1-1.28,1.47-1,2.53l-2,.17a12.25,12.25,0,0,0,1.18-1.36l5.54-6.49-6.24-6.21a8.43,8.43,0,0,0-1.79-1.4l2.86-.24c.07.81.26,1.1,1.26,2Z" transform="translate(-39.94 -57.5)" style="fill:#fff;stroke:#fff;stroke-linecap:round;stroke-linejoin:round;stroke-width:1.18717134781182px"/><path d="M1043.4,370.42l-.38.23a13,13,0,0,0-9-1.29c-3.05.61-5.56,1.71-7,4.35a6.55,6.55,0,0,0,1.29,7.92c2.33,2.31,5.65,2.82,8.79,2.77,2.16,0,5.83-.9,7.43-2.76l.46.12a23.4,23.4,0,0,0-1.33,2.28,6.73,6.73,0,0,0-1.87,0l-.45.1c-4.1.85-9.15,1.49-13-.72a6.71,6.71,0,0,1-3.46-7.91c.94-3,3.72-5.19,7.81-6.24a19.33,19.33,0,0,1,4.51-.56c.49,0,1,0,2.28.13a3.26,3.26,0,0,0,2.29-.28l1.64,1.83Z" transform="translate(-39.94 -57.5)" style="fill:#fff;stroke:#fff;stroke-linecap:round;stroke-linejoin:round;stroke-width:1.18717134781182px"/><path d="M1057.69,368.82c-2.58-1-3.9-.87-6.53-.66l-1.29.11.42,5.1,4.32-.36a15.44,15.44,0,0,0,4.34-.77l.11,1.39a13.64,13.64,0,0,0-4.56-.18l-4.18.35.64,7.66.13,1.49.71-.06c3.12-.26,5-.42,7.86-2.07l.39.2-1.66,1.9a8.14,8.14,0,0,0-2,0l-7.18.6s.31-.42.19-1.83l-1-12.29a2.38,2.38,0,0,0-.43-1.34l6.72-.56a6.88,6.88,0,0,0,1.54-.21l1.8,1.3-.3.21Z" transform="translate(-39.94 -57.5)" style="fill:#fff;stroke:#fff;stroke-linecap:round;stroke-linejoin:round;stroke-width:1.18717134781182px"/><path d="M1065.71,377.79l-.87-10.48c4.63-.39,6.49.14,8.18,1.25a4.3,4.3,0,0,1,1.57,5.13,6.06,6.06,0,0,1-4.37,3.53,25.32,25.32,0,0,1-4.51.58Zm-2.81-10.94a2.18,2.18,0,0,1,.43,1.29l1,12.65a2.26,2.26,0,0,1-.19,1.51l2.29-.19s-.43-.2-.53-1.46l-.19-2.32.6-.05c3.38-.28,6.78-.54,8.85-3a5,5,0,0,0,.19-6.41c-2.41-2.67-6.38-2.54-9.3-2.32l-3.2.27Z" transform="translate(-39.94 -57.5)" style="fill:none;stroke:#fff;stroke-linecap:round;stroke-linejoin:round;stroke-width:1.18717134781182px"/><path d="M1078.75,365.51a8,8,0,0,0,3.1.25l4.21-.35a31.77,31.77,0,0,0,4.65-.84l.24.1c-.8.5-1.51,1-2.25,1.47a8.84,8.84,0,0,0-4.34-.25l1.1,13.27a2.32,2.32,0,0,0,.43,1.35l-2.37.2a2.47,2.47,0,0,0,.34-1.44l-1.1-13.24c-2.18.16-5.61.43-6.25,1.07l-.19-.19,2.28-1.38Z" transform="translate(-39.94 -57.5)" style="fill:#fff;stroke:#fff;stroke-linecap:round;stroke-linejoin:round;stroke-width:1.18717134781182px"/><path d="M1105.27,364.44a11,11,0,0,1,2.91-1,14.1,14.1,0,0,1,9.71,1.49c3.33,2,4.18,4.93,3.61,7.36-.53,2.05-2,3.93-5.28,5.06a14.39,14.39,0,0,1-9.63,0c-4-1.59-5.45-4.64-5.47-6.67a7.13,7.13,0,0,1,4.15-6.18Zm3.81-1.66a14.51,14.51,0,0,0-3.37,1c-4.43,1.93-5.94,4.77-6.11,7.2-.22,2.6,1.48,5,4.47,6.4a16.86,16.86,0,0,0,11.57.55c3.72-1.08,6.41-3.37,7.29-5.92a6.12,6.12,0,0,0-2.59-7.26c-3.41-2.28-8.05-2.55-11.26-2Z" transform="translate(-39.94 -57.5)" style="fill:none;stroke:#fff;stroke-linecap:round;stroke-linejoin:round;stroke-width:1.18717134781182px"/><path d="M1144,376.17l-16-11.82.92,11.1c.08,1,.23,1,.58,1.44l-1.6.13a1.81,1.81,0,0,0,.45-1.52l-1-11.61-2.86-2.16,2.08-.17,16.64,12.31-1-12.14a1.78,1.78,0,0,0-.69-1.41l1.65-.14a1.55,1.55,0,0,0-.39,1.49l1.21,14.5Z" transform="translate(-39.94 -57.5)" style="fill:#fff;stroke:#fff;stroke-linecap:round;stroke-linejoin:round;stroke-width:1.18717134781182px"/><path d="M1150.06,370.25l3.46-9.28,3.94,8.66-7.4.62Zm2.61-10.86.3.8-4.5,12.45a5.27,5.27,0,0,1-1.61,2.8l2.4-.2a2,2,0,0,1-.23-2.09l.83-2.41,7.78-.64.89,1.64c.31.58,1.17,1.9.39,2.7l3.07-.25a4.87,4.87,0,0,1-1.68-2.13l-6.1-12.79-1.55.13Z" transform="translate(-39.94 -57.5)" style="fill:none;stroke:#fff;stroke-linecap:round;stroke-linejoin:round;stroke-width:1.18717134781182px"/><path d="M1166,358.28a2.64,2.64,0,0,0-.26,1.37l1.13,13.66,8-.66a4.06,4.06,0,0,0-2,1.27,9,9,0,0,0-4-.31l-3.84.32s.29-.34.2-1.44l-1-12.55a3.16,3.16,0,0,0-.44-1.48l2.29-.19Z" transform="translate(-39.94 -57.5)" style="fill:#fff;stroke:#fff;stroke-linecap:round;stroke-linejoin:round;stroke-width:1.18717134781182px"/><path d="M1065.71,377.79l-.87-10.48c4.63-.39,6.49.14,8.18,1.25a4.3,4.3,0,0,1,1.57,5.13,6.06,6.06,0,0,1-4.37,3.53,25.32,25.32,0,0,1-4.51.58Zm-2.81-10.94a2.18,2.18,0,0,1,.43,1.29l1,12.65a2.26,2.26,0,0,1-.19,1.51l2.29-.19s-.43-.2-.53-1.46l-.19-2.32.6-.05c3.38-.28,6.78-.54,8.85-3a5,5,0,0,0,.19-6.41c-2.41-2.67-6.38-2.54-9.3-2.32l-3.2.27Z" transform="translate(-39.94 -57.5)" style="fill:#fff"/><path d="M1095.06,364.17a2.5,2.5,0,0,0-.29,1.38l1,12.65a2.35,2.35,0,0,0,.52,1.44l-2.34.19a2.08,2.08,0,0,0,.21-1.61l-1-12.51a2.79,2.79,0,0,0-.46-1.33l2.35-.2Z" transform="translate(-39.94 -57.5)" style="fill:#fff;stroke:#fff;stroke-linecap:round;stroke-linejoin:round;stroke-width:1.18717134781182px"/><path d="M1105.27,364.44a11,11,0,0,1,2.91-1,14.1,14.1,0,0,1,9.71,1.49c3.33,2,4.18,4.93,3.61,7.36-.53,2.05-2,3.93-5.28,5.06a14.39,14.39,0,0,1-9.63,0c-4-1.59-5.45-4.64-5.47-6.67a7.13,7.13,0,0,1,4.15-6.18Zm3.81-1.66a14.51,14.51,0,0,0-3.37,1c-4.43,1.93-5.94,4.77-6.11,7.2-.22,2.6,1.48,5,4.47,6.4a16.86,16.86,0,0,0,11.57.55c3.72-1.08,6.41-3.37,7.29-5.92a6.12,6.12,0,0,0-2.59-7.26c-3.41-2.28-8.05-2.55-11.26-2Z" transform="translate(-39.94 -57.5)" style="fill:#fff"/><path d="M1150.06,370.25l3.46-9.28,3.94,8.66-7.4.62Zm2.61-10.86.3.8-4.5,12.45a5.27,5.27,0,0,1-1.61,2.8l2.4-.2a2,2,0,0,1-.23-2.09l.83-2.41,7.78-.64.89,1.64c.31.58,1.17,1.9.39,2.7l3.07-.25a4.87,4.87,0,0,1-1.68-2.13l-6.1-12.79-1.55.13Z" transform="translate(-39.94 -57.5)" style="fill:#fff"/></g></svg>